<svg width="43" height="40" viewBox="0 0 43 40" fill="none" xmlns="http://www.w3.org/2000/svg">
<path d="M42.6816 2.52639L36.1646 0L29.5825 2.90416L36.2736 5.8291L42.6816 2.52639Z" fill="url(#paint0_linear_2130_4234)"/>
<path d="M27.7958 9.21568L26.7047 7.88373L29.5826 2.9043L36.4007 5.54743L31.9188 13.7446L27.7958 9.21568Z" fill="url(#paint1_linear_2130_4234)"/>
<path d="M33.0663 28.5186L36.1 33.8466L31.4501 32.0437L33.0663 28.5186Z" fill="#172838"/>
<path d="M18.6891 35.2032V38.5329L22.3512 39.9522L22.6404 32.1934L18.6891 35.2032Z" fill="url(#paint2_linear_2130_4234)"/>
<path d="M-0.0012207 2.82981L6.39332 0.00878906L28.7458 8.67482L22.3512 11.9922L-0.0012207 2.82981Z" fill="url(#paint3_linear_2130_4234)"/>
<path d="M15.8344 30.9141V25.8969L12.6008 24.6155V15.2142L6.39332 12.7251L-0.0012207 15.5462L6.51556 18.0732V27.3009L15.8344 30.9141ZM22.3512 32.7694V11.4971L28.48 21.0739L22.3512 32.7694Z" fill="#172838"/>
<path d="M42.6816 2.52637L36.0999 5.43114L31.9187 13.7445L28.7458 8.67517L22.3512 11.4968L28.2371 21.0651L22.3512 32.7684V39.9522L28.9333 37.048L33.0423 28.8764L36.0995 33.8461L42.6816 30.9414L36.7613 21.482L42.6816 9.71006V2.52637Z" fill="#4E555F"/>
<path d="M22.3512 11.4967L-0.0012207 2.83008V9.40128L15.8344 15.5409V30.9137L6.51556 27.3006V18.0728L-0.0012207 15.5458V31.286L15.5257 37.306L22.3512 32.769V11.4967Z" fill="#0070D7"/>
<path d="M22.3512 32.7694L28.2371 21.0653L25.13 19.8525L22.3512 32.7694Z" fill="url(#paint4_linear_2130_4234)"/>
<path d="M22.3512 11.4971L28.2371 21.0653L25.13 19.8526L22.3512 11.4971Z" fill="url(#paint5_linear_2130_4234)"/>
<defs>
<linearGradient id="paint0_linear_2130_4234" x1="29.5825" y1="2.91456" x2="42.6816" y2="2.91456" gradientUnits="userSpaceOnUse">
<stop stop-color="#172838"/>
<stop offset="0.43" stop-color="#192A3A"/>
<stop offset="0.64" stop-color="#21303F"/>
<stop offset="0.79" stop-color="#2E3A48"/>
<stop offset="0.93" stop-color="#404955"/>
<stop offset="1" stop-color="#4E555F"/>
</linearGradient>
<linearGradient id="paint1_linear_2130_4234" x1="29.9953" y1="9.67597" x2="33.9588" y2="2.14326" gradientUnits="userSpaceOnUse">
<stop stop-color="#172838"/>
<stop offset="0.89" stop-color="#0070D7"/>
</linearGradient>
<linearGradient id="paint2_linear_2130_4234" x1="18.6891" y1="36.0731" x2="25.9247" y2="36.0731" gradientUnits="userSpaceOnUse">
<stop stop-color="#172838"/>
<stop offset="0.89" stop-color="#4E555F"/>
</linearGradient>
<linearGradient id="paint3_linear_2130_4234" x1="-0.0012207" y1="6.00049" x2="31.8113" y2="6.00049" gradientUnits="userSpaceOnUse">
<stop stop-color="#172838"/>
<stop offset="0.43" stop-color="#192A3A"/>
<stop offset="0.64" stop-color="#21303F"/>
<stop offset="0.79" stop-color="#2E3A48"/>
<stop offset="0.92" stop-color="#404955"/>
<stop offset="1" stop-color="#4E555F"/>
</linearGradient>
<linearGradient id="paint4_linear_2130_4234" x1="22.5706" y1="25.9336" x2="29.1204" y2="28.0468" gradientUnits="userSpaceOnUse">
<stop stop-color="#172838"/>
<stop offset="1" stop-color="#0070D7"/>
</linearGradient>
<linearGradient id="paint5_linear_2130_4234" x1="22.3512" y1="16.2809" x2="28.9493" y2="16.2809" gradientUnits="userSpaceOnUse">
<stop stop-color="#172838"/>
<stop offset="0.89" stop-color="#0070D7"/>
</linearGradient>
</defs>
</svg>
